<svg xmlns="http://www.w3.org/2000/svg" 
xmlns:xlink="http://www.w3.org/1999/xlink" version="1.1" x="0px" y="0px" viewBox="0 0 100 125" enable-background="new 0 0 100 100" xml:space="preserve"><rect x="5" y="5" fill="none" width="90" height="90"/><g><path d="M32.787,75.357c-0.484,0-0.877,0.393-0.877,0.876v17.799c0,0.484,0.393,0.877,0.877,0.877c0.484,0,0.876-0.393,0.876-0.877   V76.233C33.663,75.75,33.271,75.357,32.787,75.357z"/><path d="M45.408,75.357c-0.484,0-0.877,0.393-0.877,0.876v17.799c0,0.484,0.393,0.877,0.877,0.877s0.877-0.393,0.877-0.877V76.233   C46.285,75.75,45.892,75.357,45.408,75.357z"/><path d="M54.59,75.357c-0.484,0-0.877,0.393-0.877,0.876v17.799c0,0.484,0.393,0.877,0.877,0.877c0.485,0,0.877-0.393,0.877-0.877   V76.233C55.467,75.75,55.075,75.357,54.59,75.357z"/><path d="M67.213,75.357c-0.483,0-0.877,0.393-0.877,0.876v17.799c0,0.484,0.394,0.877,0.877,0.877c0.484,0,0.877-0.393,0.877-0.877   V76.233C68.09,75.75,67.697,75.357,67.213,75.357z"/><path d="M41.677,75.405c-0.458-0.157-0.957,0.088-1.114,0.545l-2.491,7.277c-0.157,0.457,0.088,0.957,0.545,1.113   c0.095,0.031,0.19,0.048,0.285,0.048c0.364,0,0.705-0.229,0.829-0.594l2.492-7.275C42.379,76.061,42.135,75.563,41.677,75.405z"/><path d="M59.436,75.95c-0.156-0.457-0.656-0.702-1.114-0.545s-0.702,0.655-0.545,1.114l2.491,7.275   c0.124,0.365,0.465,0.594,0.83,0.594c0.094,0,0.188-0.017,0.282-0.048c0.459-0.156,0.704-0.656,0.547-1.113L59.436,75.95z"/><path d="M67.871,65.28v-4.73c0-0.232-0.121-0.445-0.32-0.564l-7.957-4.762c0.12-0.548,0.325-1.496,0.503-2.352h7.116   c0,0,0,0,0.002,0c0.363,0,0.657-0.295,0.657-0.658c0-0.088-0.017-0.172-0.049-0.248l-2.665-8.254   c-0.088-0.271-0.341-0.455-0.625-0.455h-2.811c0.104-0.815,0.196-1.608,0.275-2.37c0.486-4.705,0.185-9.504-0.898-14.264   c-0.866-3.802-2.229-7.588-4.052-11.25c-3.103-6.239-6.424-9.915-6.563-10.067C50.36,5.168,50.184,5.09,49.999,5.09   s-0.361,0.078-0.485,0.216c-0.14,0.152-3.459,3.828-6.563,10.067c-1.822,3.662-3.185,7.448-4.05,11.25   c-1.084,4.76-1.387,9.559-0.9,14.264c0.079,0.764,0.171,1.557,0.275,2.37h-2.809c-0.284,0-0.538,0.185-0.625,0.455l-2.68,8.299   c-0.065,0.201-0.03,0.421,0.094,0.59c0.124,0.171,0.322,0.271,0.533,0.271h7.115c0.158,0.769,0.326,1.557,0.503,2.352l-7.956,4.762   c-0.199,0.119-0.319,0.332-0.319,0.564v4.73c0,0.354,0.278,0.644,0.631,0.657l10.461,0.418c0.433,1.525,0.886,3.071,1.353,4.601   c0.084,0.276,0.34,0.466,0.628,0.466h9.595c0.289,0,0.544-0.189,0.627-0.466c0.195-0.636,0.586-1.947,1.351-4.601l10.464-0.418   C67.591,65.924,67.871,65.634,67.871,65.28z M49.999,45.723c-1.94,0-3.519-1.579-3.519-3.521s1.579-3.521,3.519-3.521   c1.939,0,3.52,1.579,3.52,3.521S51.938,45.723,49.999,45.723z M49.999,33.549c-2.424,0-4.396-1.974-4.396-4.397   c0-2.425,1.972-4.397,4.396-4.397c2.425,0,4.396,1.973,4.396,4.397C54.396,31.575,52.424,33.549,49.999,33.549z"/></g></svg>