<svg xmlns="http://www.w3.org/2000/svg" xmlns:xlink="http://www.w3.org/1999/xlink" version="1.1" x="0px" y="0px" viewBox="0 0 100 125" enable-background="new 0 0 100 100" xml:space="preserve"><g><path fill="none" d="M76.691,36.415c-2.007,0-3.965,0.36-5.821,1.07l-2.057,0.788l0.088-2.202c0.009-0.215,0.017-0.431,0.017-0.647   c0-8.54-6.833-15.487-15.231-15.487c-7.597,0-14.085,5.768-15.09,13.415l-0.212,1.612l-1.578-0.393   c-0.714-0.178-1.445-0.267-2.173-0.267c-3.301,0-6.363,1.835-7.99,4.789l-0.529,0.961l-1.07-0.248   c-1.084-0.25-2.2-0.378-3.316-0.378c-7.624,0-13.826,5.802-13.826,12.933s6.202,12.934,13.826,12.934   c0.44,0,0.876-0.022,1.305-0.06l0.215-0.019l0.212,0.044c0.114,0.024,0.227,0.035,0.345,0.035h54.915   c0.262,0,0.516-0.06,0.755-0.179l0.175-0.087l0.192-0.038c7.1-1.384,12.254-7.329,12.254-14.137   C92.097,42.892,85.186,36.415,76.691,36.415z"/><path d="M76.691,33.511c-1.674,0-3.319,0.213-4.913,0.634c-0.649-9.546-8.515-17.112-18.09-17.112   c-8.546,0-15.91,6.111-17.709,14.443c-4.438-0.507-8.827,1.583-11.316,5.293c-0.968-0.163-1.951-0.246-2.933-0.246   C12.505,36.524,5,43.628,5,52.361s7.505,15.837,16.729,15.837c0.444,0,0.903-0.019,1.367-0.055   c0.234,0.036,0.473,0.055,0.711,0.055h54.915c0.644,0,1.266-0.131,1.855-0.392C88.945,66.091,95,58.99,95,50.854   C95,41.291,86.786,33.511,76.691,33.511z M79.843,64.991l-0.192,0.038l-0.175,0.087c-0.239,0.118-0.493,0.179-0.755,0.179H23.807   c-0.118,0-0.231-0.011-0.345-0.035l-0.212-0.044l-0.215,0.019c-0.429,0.039-0.865,0.06-1.305,0.06   c-7.624,0-13.826-5.803-13.826-12.934s6.202-12.933,13.826-12.933c1.116,0,2.232,0.128,3.316,0.378l1.07,0.248l0.529-0.961   c1.627-2.953,4.689-4.789,7.99-4.789c0.728,0,1.459,0.09,2.173,0.267l1.578,0.393l0.212-1.612   c1.005-7.647,7.492-13.415,15.09-13.415c8.398,0,15.231,6.947,15.231,15.487c0,0.216-0.009,0.432-0.017,0.647l-0.088,2.202   l2.057-0.788c1.855-0.71,3.813-1.07,5.821-1.07c8.494,0,15.405,6.477,15.405,14.44C92.097,57.663,86.943,63.608,79.843,64.991z"/></g></svg>